<svg xmlns="http://www.w3.org/2000/svg"
    data-encore-id="icon"
    role="img"
    aria-hidden="true"
    viewBox="0 0 16 16"
    width="17"
    height="17"
    fill="#979797"
>
    <path d="M4.502 0a.637.637 0 0 1 .634.58 4.84 4.84 0 0 0 .81 2.184c.515.739 1.297 1.356 2.487 1.486a.637.637 0 0 1 0 1.267c-1.19.13-1.972.747-2.487 1.487a4.8 4.8 0 0 0-.81 2.185.637.637 0 0 1-1.268 0 4.8 4.8 0 0 0-.81-2.185C2.543 6.265 1.76 5.648.57 5.518a.637.637 0 0 1 0-1.268c1.19-.13 1.972-.747 2.487-1.486a4.84 4.84 0 0 0 .81-2.185A.637.637 0 0 1 4.502 0m4.765 11.878c.056.065.126.15.198.236l.33.397.013.015A3 3 0 0 0 12.1 13.59h1.009l-.444.443a.75.75 0 0 0 1.061 1.06l2.254-2.253-2.254-2.254a.75.75 0 0 0-1.06 1.06l.443.444H12.1a1.5 1.5 0 0 1-1.146-.533l-.004-.005-.333-.4-.288-.343-.031-.035-.02-.021-.037-.037-.974 1.16Z"></path>
    <path d="M12.69 4.196a.75.75 0 0 1 1.06 0l2.254 2.254-2.254 2.254a.75.75 0 0 1-1.06-1.06l.443-.444h-1.008a1.5 1.5 0 0 0-1.15.536l-4.63 5.517c-.344.411-.982 1.021-1.822 1.021v-1.5c.122 0 .371-.124.674-.485l4.63-5.517A3 3 0 0 1 12.125 5.7h1.008l-.443-.443a.75.75 0 0 1 0-1.061"></path>
</svg>